<?xml version="1.0"?>
<svg xmlns="http://www.w3.org/2000/svg" viewBox="0 0 24 24">
    <path d="M 14 2 C 8.859 2 4 5 4 5 C 4 5 4.018 5.824 4 7 L 6 7 L 7 8 L 6 9 L 3.9375 9 C 3.9025 9.655 3.85525 10.335 3.78125 11 L 6 11 L 7 12 L 6 13 L 3.46875 13 C 3.32475 13.644 3.13225 14.203 2.90625 14.625 L 6 16 L 6 17 C 6 18.104 6.896 19 8 19 C 9.104 19 10 18.104 10 17 L 10 16 L 13.8125 13.71875 C 13.8125 13.71875 13 12.64175 13 11.46875 C 13 8.84075 14 2 14 2 z M 12.53125 15.65625 L 11 16.5625 L 11 17 C 11 18.654 9.654 20 8 20 C 6.346 20 5 18.654 5 17 L 5 16.65625 L 3.96875 16.1875 L 3.9375 16.21875 C 3.9375 16.21875 2.90625 17.57725 2.90625 19.28125 C 2.90625 20.98525 3.8125 22 3.8125 22 L 14.03125 22 C 14.26825 19.382 15.4215 17.731 16.4375 16.75 L 12.53125 15.65625 z M 8 16.15625 C 8.472 16.15625 8.84375 16.527 8.84375 17 C 8.84375 17.472 8.473 17.84375 8 17.84375 C 7.527 17.84375 7.15625 17.472 7.15625 17 C 7.15625 16.527 7.528 16.15625 8 16.15625 z M 17.59375 17.0625 C 16.65975 17.8065 15.3335 19.318 15.0625 22 L 22 22 L 21.375 20.15625 C 20.904 18.74225 19.77975 17.68025 18.34375 17.28125 L 17.59375 17.0625 z"/>
</svg>
