<?xml version="1.0"?>
<svg xmlns="http://www.w3.org/2000/svg" viewBox="0 0 24 24">
    <path d="M 10 2 L 10 9.03125 L 9 9.03125 L 9 3 L 7 3 L 7 9.03125 L 7 10 L 7 12.625 C 7 12.625 5.41675 10.91125 4.59375 10.53125 C 3.40475 9.98225 2.65625 11.75 2.65625 11.75 L 7.03125 17.75 C 7.18725 17.956 7.3655 18.12125 7.5625 18.28125 L 7 20 C 9.843 20 12.5 22 12.5 22 C 12.5 22 14.986 20 18 20 L 17.15625 17.4375 C 17.68325 16.7605 18 15.924 18 15 L 18 10 L 18 9.03125 L 18 5 L 16 5 L 16 9.03125 L 15 9.03125 L 15 3 L 13 3 L 13 9.03125 L 12 9.03125 L 12 2 L 10 2 z"/>
</svg>
