<?xml version="1.0"?>
<svg xmlns="http://www.w3.org/2000/svg" viewBox="0 0 24 24">
    <path style="text-indent:0;text-align:start;line-height:normal;text-transform:none;block-progression:tb;-inkscape-font-specification:Bitstream Vera Sans" d="M 12 1.9375 L 11.65625 2.0625 C 11.65625 2.0625 9.5346446 2.8428004 7.40625 4.4375 C 5.2778554 6.0321996 3 8.5504427 3 12 C 3 14.242638 3.7272446 16.042624 3.9375 16.53125 L 3.0625 19.1875 L 2.71875 20.21875 L 3.75 20.46875 L 9.75 21.96875 L 11 22.28125 L 11 21 L 11 20 L 13 20 L 13 21 L 13 22.28125 L 14.25 21.96875 L 20.25 20.46875 L 21.28125 20.21875 L 20.9375 19.1875 L 20.0625 16.53125 C 20.272755 16.042624 21 14.242638 21 12 C 21 8.5504427 18.722145 6.0321996 16.59375 4.4375 C 14.465355 2.8428004 12.34375 2.0625 12.34375 2.0625 L 12 1.9375 z M 12 4.125 C 12.297064 4.2420206 13.705268 4.7567892 15.40625 6.03125 C 17.277855 7.4335504 19 9.4375573 19 12 C 19 13.98196 18.09375 16.09375 18.09375 16.09375 L 17.9375 16.4375 L 18.0625 16.8125 L 18.71875 18.78125 L 15 19.71875 L 15 16.84375 L 16.46875 15 C 16.803754 14.579098 17 14.072152 17 13.53125 L 17 13.375 C 17 12.072318 15.927682 11 14.625 11 C 13.945044 11 13.295275 11.305827 12.84375 11.8125 L 12 12.75 L 11.15625 11.8125 C 10.704725 11.305827 10.054956 11 9.375 11 C 8.0723176 11 7 12.072318 7 13.375 L 7 13.53125 C 7 14.072152 7.196246 14.579098 7.53125 15 L 9 16.84375 L 9 19.71875 L 5.28125 18.78125 L 5.9375 16.8125 L 6.0625 16.4375 L 5.90625 16.09375 C 5.90625 16.09375 5 13.98196 5 12 C 5 9.4375573 6.7221446 7.4335504 8.59375 6.03125 C 10.294732 4.7567892 11.702936 4.2420206 12 4.125 z M 8 8 C 7.4477153 8 7 8.4477153 7 9 C 7 9.5522847 7.4477153 10 8 10 C 8.5522847 10 9 9.5522847 9 9 C 9 8.4477153 8.5522847 8 8 8 z M 12 8 C 11.447715 8 11 8.4477153 11 9 C 11 9.5522847 11.447715 10 12 10 C 12.552285 10 13 9.5522847 13 9 C 13 8.4477153 12.552285 8 12 8 z M 16 8 C 15.447715 8 15 8.4477153 15 9 C 15 9.5522847 15.447715 10 16 10 C 16.552285 10 17 9.5522847 17 9 C 17 8.4477153 16.552285 8 16 8 z" overflow="visible" font-family="Bitstream Vera Sans"/>
</svg>
